<svg xmlns="http://www.w3.org/2000/svg" xmlns:xlink="http://www.w3.org/1999/xlink" viewBox="0 0 234 234"><defs><style>.cls-1{fill:#fff;}.cls-2{fill:url(#radial-gradient);}</style><radialGradient id="radial-gradient" cx="117" cy="117" r="105.5" gradientUnits="userSpaceOnUse"><stop offset="0"/><stop offset="0.63" stop-color="#020202"/><stop offset="0.85" stop-color="#090909"/><stop offset="1" stop-color="#131313"/></radialGradient></defs><title>OBSLogo_1</title><g id="Layer_2" data-name="Layer 2"><g id="Layer_3" data-name="Layer 3"><circle class="cls-1" cx="117" cy="117" r="117"/><circle class="cls-2" cx="117" cy="117" r="105.5"/></g><g id="Layer_2-2" data-name="Layer 2"><path class="cls-1" d="M163.13,82.1c-1-.06-2.08-.1-3.13-.1-.49,0-1,0-1.46,0a48,48,0,0,1-41.31,24H117c-.63,0-1.25,0-1.87,0A48,48,0,0,1,89.07,19c-.69.2-1.37.43-2.05.64A54,54,0,0,0,65.48,97c.51,0,1,0,1.52,0a48,48,0,0,1,41.27,23.49c.29.48.57,1,.84,1.46a48,48,0,0,1-53.28,69.73,54.16,54.16,0,0,0,68.77-24.18,48,48,0,0,1,1.52-47.67l.1,0,0-.08A48,48,0,0,1,214,135.24,54,54,0,0,0,163.13,82.1Z"/></g></g></svg>