<svg xmlns="http://www.w3.org/2000/svg" viewBox="0 0 178.39 111.62"><defs><style>.cls-1{fill:#87262c;}.cls-2{fill:#d07b30;}.cls-3{fill:#1e6f22;}.cls-4{fill:#949494;}.cls-5{fill:#4186d1;}.cls-6{fill:#1c63a3;}.cls-7{fill:#c1c2c4;}.cls-8{fill:none;}</style></defs><title>Section3</title><g id="Layer_2" data-name="Layer 2"><g id="Layer_1-2" data-name="Layer 1"><rect class="cls-1" x="6.03" y="53.62" width="167.02" height="1.92"/><rect class="cls-2" x="6.03" y="53.62" width="139.9" height="1.92"/><rect class="cls-3" x="6.03" y="53.62" width="109.96" height="1.92"/><rect class="cls-1" x="6.03" y="55.81" width="167.02" height="1.92"/><rect class="cls-2" x="6.03" y="55.81" width="139.9" height="1.92"/><rect class="cls-3" x="6.03" y="55.81" width="109.96" height="1.92"/><rect class="cls-4" y="7.19" width="28.9" height="2.94"/><rect class="cls-4" x="31.66" y="7.19" width="20.36" height="2.94"/><rect class="cls-4" x="6.03" y="21.63" width="28.65" height="2.94"/><rect class="cls-4" x="6.13" y="48.13" width="41.36" height="2.94"/><rect class="cls-5" x="6.03" y="31.96" width="83.08" height="2.67"/><rect class="cls-6" x="89.97" y="31.96" width="83.08" height="2.67"/><rect class="cls-7" x="84.4" y="30.52" width="10.55" height="5.1"/><rect class="cls-5" x="6.13" y="60.77" width="83.08" height="2.67"/><rect class="cls-6" x="89.97" y="60.71" width="83.08" height="2.67"/><rect class="cls-7" x="84.13" y="59.27" width="10.55" height="5.1"/><rect class="cls-1" x="6.03" y="27.12" width="167.02" height="1.92"/><rect class="cls-8" width="178.39" height="111.62"/><rect class="cls-2" x="6.03" y="27.12" width="139.9" height="1.92"/><rect class="cls-3" x="6.03" y="27.12" width="109.96" height="1.92"/></g></g></svg>